<mxfile host="app.diagrams.net" agent="Mozilla/5.0 (Macintosh; Intel Mac OS X 10_15_7) AppleWebKit/537.36 (KHTML, like Gecko) Chrome/127.0.0.0 Safari/537.36" version="24.7.16">
  <diagram name="Page-1" id="lsZ3PhkhvnQ2fq5JW8zN">
    <mxGraphModel dx="222" dy="1287" grid="1" gridSize="10" guides="1" tooltips="1" connect="1" arrows="1" fold="1" page="1" pageScale="1" pageWidth="850" pageHeight="1100" math="0" shadow="0">
      <root>
        <mxCell id="0" />
        <mxCell id="1" parent="0" />
        <mxCell id="pG6bn2Zg-pA-t7pHT_2o-4" value="" style="verticalLabelPosition=bottom;verticalAlign=top;html=1;shape=mxgraph.basic.polygon;polyCoords=[[0,0.2],[0,0],[0.36,0],[1,1],[1,1],[0,1],[0,0.75],[0,0.2]];polyline=0;fillColor=#f8cecc;strokeColor=#000000;" parent="1" vertex="1">
          <mxGeometry x="200" y="160" width="110" height="100" as="geometry" />
        </mxCell>
        <mxCell id="pG6bn2Zg-pA-t7pHT_2o-5" value="" style="verticalLabelPosition=bottom;verticalAlign=top;html=1;shape=mxgraph.basic.polygon;polyCoords=[[0.2,0],[1,0],[1,0.25],[1,0.75],[1,1],[1,1],[0.2,0],[0.2,0]];polyline=0;fillColor=#d5e8d4;strokeColor=#82b366;" parent="1" vertex="1">
          <mxGeometry x="210" y="160" width="100" height="100" as="geometry" />
        </mxCell>
        <mxCell id="pG6bn2Zg-pA-t7pHT_2o-6" value="" style="verticalLabelPosition=bottom;verticalAlign=top;html=1;shape=mxgraph.basic.polygon;polyCoords=[[0.25,0],[0.45,0],[0.55,0],[0.85,0],[0.65,0.5],[0.35,0.2],[0.15,0],[0.25,0]];polyline=0;fillColor=#dae8fc;strokeColor=#6c8ebf;" parent="1" vertex="1">
          <mxGeometry x="205" y="160" width="100" height="100" as="geometry" />
        </mxCell>
        <mxCell id="pG6bn2Zg-pA-t7pHT_2o-8" value="" style="verticalLabelPosition=bottom;verticalAlign=top;html=1;shape=mxgraph.basic.polygon;polyCoords=[[0.4,1],[0.4,1],[0.6,0.5],[1,0.9],[1,1],[0.4,1],[0.4,1],[0.4,1]];polyline=0;fillColor=#fff2cc;strokeColor=#000000;" parent="1" vertex="1">
          <mxGeometry x="210" y="160" width="100" height="100" as="geometry" />
        </mxCell>
        <mxCell id="pG6bn2Zg-pA-t7pHT_2o-9" value="&lt;font style=&quot;font-size: 8px;&quot;&gt;ii&lt;/font&gt;" style="text;html=1;align=center;verticalAlign=middle;whiteSpace=wrap;rounded=0;" parent="1" vertex="1">
          <mxGeometry x="220" y="202.5" width="25" height="15" as="geometry" />
        </mxCell>
        <mxCell id="pG6bn2Zg-pA-t7pHT_2o-10" value="&lt;font style=&quot;font-size: 8px;&quot;&gt;ia&lt;/font&gt;" style="text;html=1;align=center;verticalAlign=middle;whiteSpace=wrap;rounded=0;" parent="1" vertex="1">
          <mxGeometry x="245.5" y="163" width="25" height="15" as="geometry" />
        </mxCell>
        <mxCell id="pG6bn2Zg-pA-t7pHT_2o-11" value="&lt;font style=&quot;font-size: 8px;&quot;&gt;ai&lt;/font&gt;" style="text;html=1;align=center;verticalAlign=middle;whiteSpace=wrap;rounded=0;" parent="1" vertex="1">
          <mxGeometry x="267.5" y="230" width="25" height="15" as="geometry" />
        </mxCell>
        <mxCell id="pG6bn2Zg-pA-t7pHT_2o-12" value="&lt;font style=&quot;font-size: 8px;&quot;&gt;aa&lt;/font&gt;" style="text;html=1;align=center;verticalAlign=middle;whiteSpace=wrap;rounded=0;" parent="1" vertex="1">
          <mxGeometry x="280" y="187.5" width="25" height="15" as="geometry" />
        </mxCell>
        <mxCell id="pG6bn2Zg-pA-t7pHT_2o-13" value="&lt;font style=&quot;font-size: 8px;&quot;&gt;H&lt;/font&gt;&lt;font style=&quot;font-size: 6.66667px;&quot;&gt;2&lt;/font&gt;" style="text;html=1;align=center;verticalAlign=middle;whiteSpace=wrap;rounded=0;" parent="1" vertex="1">
          <mxGeometry x="304" y="94" width="31" height="30" as="geometry" />
        </mxCell>
        <mxCell id="pG6bn2Zg-pA-t7pHT_2o-14" value="&lt;font style=&quot;font-size: 8px;&quot;&gt;H&lt;/font&gt;&lt;font style=&quot;font-size: 6.66667px;&quot;&gt;1&lt;/font&gt;" style="text;html=1;align=center;verticalAlign=middle;whiteSpace=wrap;rounded=0;" parent="1" vertex="1">
          <mxGeometry x="277.5" width="27.5" height="21" as="geometry" />
        </mxCell>
        <mxCell id="pG6bn2Zg-pA-t7pHT_2o-36" value="" style="rounded=0;whiteSpace=wrap;html=1;" parent="1" vertex="1">
          <mxGeometry x="200" y="20" width="110" height="100" as="geometry" />
        </mxCell>
        <mxCell id="pG6bn2Zg-pA-t7pHT_2o-37" value="" style="endArrow=none;dashed=1;html=1;rounded=0;exitX=0.5;exitY=1;exitDx=0;exitDy=0;entryX=0.5;entryY=0;entryDx=0;entryDy=0;strokeColor=#000000;strokeWidth=0.5;" parent="1" source="pG6bn2Zg-pA-t7pHT_2o-36" target="pG6bn2Zg-pA-t7pHT_2o-36" edge="1">
          <mxGeometry width="50" height="50" relative="1" as="geometry">
            <mxPoint x="270" y="150" as="sourcePoint" />
            <mxPoint x="320" y="100" as="targetPoint" />
          </mxGeometry>
        </mxCell>
        <mxCell id="pG6bn2Zg-pA-t7pHT_2o-38" value="" style="endArrow=none;dashed=1;html=1;rounded=0;exitX=0;exitY=0.5;exitDx=0;exitDy=0;entryX=1;entryY=0.5;entryDx=0;entryDy=0;strokeColor=#000000;strokeWidth=0.5;" parent="1" source="pG6bn2Zg-pA-t7pHT_2o-36" target="pG6bn2Zg-pA-t7pHT_2o-36" edge="1">
          <mxGeometry width="50" height="50" relative="1" as="geometry">
            <mxPoint x="265" y="130" as="sourcePoint" />
            <mxPoint x="265" y="30" as="targetPoint" />
          </mxGeometry>
        </mxCell>
        <mxCell id="pG6bn2Zg-pA-t7pHT_2o-40" value="" style="rounded=0;whiteSpace=wrap;html=1;" parent="1" vertex="1">
          <mxGeometry x="349" y="20" width="110" height="100" as="geometry" />
        </mxCell>
        <mxCell id="pG6bn2Zg-pA-t7pHT_2o-41" value="" style="endArrow=none;dashed=1;html=1;rounded=0;exitX=0.5;exitY=1;exitDx=0;exitDy=0;entryX=0.5;entryY=0;entryDx=0;entryDy=0;" parent="1" source="pG6bn2Zg-pA-t7pHT_2o-49" target="pG6bn2Zg-pA-t7pHT_2o-40" edge="1">
          <mxGeometry width="50" height="50" relative="1" as="geometry">
            <mxPoint x="419" y="150" as="sourcePoint" />
            <mxPoint x="469" y="100" as="targetPoint" />
          </mxGeometry>
        </mxCell>
        <mxCell id="pG6bn2Zg-pA-t7pHT_2o-47" value="" style="endArrow=none;dashed=1;html=1;rounded=0;exitX=0.5;exitY=1;exitDx=0;exitDy=0;entryX=0.5;entryY=0;entryDx=0;entryDy=0;strokeWidth=0.5;" parent="1" source="pG6bn2Zg-pA-t7pHT_2o-40" target="pG6bn2Zg-pA-t7pHT_2o-46" edge="1">
          <mxGeometry width="50" height="50" relative="1" as="geometry">
            <mxPoint x="404" y="120" as="sourcePoint" />
            <mxPoint x="404" y="20" as="targetPoint" />
          </mxGeometry>
        </mxCell>
        <mxCell id="pG6bn2Zg-pA-t7pHT_2o-42" value="" style="endArrow=none;dashed=1;html=1;rounded=0;exitX=0;exitY=0.5;exitDx=0;exitDy=0;entryX=1;entryY=0.5;entryDx=0;entryDy=0;" parent="1" edge="1">
          <mxGeometry width="50" height="50" relative="1" as="geometry">
            <mxPoint x="400.50000000000216" y="70" as="sourcePoint" />
            <mxPoint x="458" y="70" as="targetPoint" />
          </mxGeometry>
        </mxCell>
        <mxCell id="pG6bn2Zg-pA-t7pHT_2o-43" value="Layer 1" style="text;html=1;align=center;verticalAlign=middle;whiteSpace=wrap;rounded=0;" parent="1" vertex="1">
          <mxGeometry x="210" y="120" width="90" height="30" as="geometry" />
        </mxCell>
        <mxCell id="pG6bn2Zg-pA-t7pHT_2o-44" value="" style="endArrow=none;html=1;rounded=0;exitX=0.181;exitY=-0.001;exitDx=0;exitDy=0;exitPerimeter=0;entryX=1.004;entryY=0.899;entryDx=0;entryDy=0;entryPerimeter=0;strokeWidth=2;strokeColor=#1010C9;" parent="1" source="pG6bn2Zg-pA-t7pHT_2o-36" target="pG6bn2Zg-pA-t7pHT_2o-36" edge="1">
          <mxGeometry width="50" height="50" relative="1" as="geometry">
            <mxPoint x="330" y="160" as="sourcePoint" />
            <mxPoint x="380" y="110" as="targetPoint" />
          </mxGeometry>
        </mxCell>
        <mxCell id="pG6bn2Zg-pA-t7pHT_2o-45" value="" style="endArrow=none;html=1;rounded=0;exitX=0.451;exitY=1.004;exitDx=0;exitDy=0;exitPerimeter=0;entryX=0.806;entryY=0.001;entryDx=0;entryDy=0;entryPerimeter=0;strokeWidth=2;strokeColor=#FFB570;" parent="1" source="pG6bn2Zg-pA-t7pHT_2o-36" target="pG6bn2Zg-pA-t7pHT_2o-36" edge="1">
          <mxGeometry width="50" height="50" relative="1" as="geometry">
            <mxPoint x="260" y="160" as="sourcePoint" />
            <mxPoint x="310" y="110" as="targetPoint" />
          </mxGeometry>
        </mxCell>
        <mxCell id="pG6bn2Zg-pA-t7pHT_2o-48" value="" style="endArrow=none;dashed=1;html=1;rounded=0;exitX=0;exitY=0.5;exitDx=0;exitDy=0;entryX=1;entryY=0.5;entryDx=0;entryDy=0;strokeWidth=0.5;" parent="1" source="pG6bn2Zg-pA-t7pHT_2o-40" target="pG6bn2Zg-pA-t7pHT_2o-46" edge="1">
          <mxGeometry width="50" height="50" relative="1" as="geometry">
            <mxPoint x="349" y="70" as="sourcePoint" />
            <mxPoint x="459" y="70" as="targetPoint" />
          </mxGeometry>
        </mxCell>
        <mxCell id="pG6bn2Zg-pA-t7pHT_2o-50" value="" style="endArrow=none;dashed=1;html=1;rounded=0;exitX=0.5;exitY=1;exitDx=0;exitDy=0;entryX=0.5;entryY=0;entryDx=0;entryDy=0;" parent="1" source="pG6bn2Zg-pA-t7pHT_2o-46" target="pG6bn2Zg-pA-t7pHT_2o-49" edge="1">
          <mxGeometry width="50" height="50" relative="1" as="geometry">
            <mxPoint x="404" y="73" as="sourcePoint" />
            <mxPoint x="404" y="20" as="targetPoint" />
          </mxGeometry>
        </mxCell>
        <mxCell id="pG6bn2Zg-pA-t7pHT_2o-54" value="" style="rounded=0;whiteSpace=wrap;html=1;fillColor=#d5e8d4;strokeColor=#82b366;" parent="1" vertex="1">
          <mxGeometry x="406.5" y="20" width="52" height="48" as="geometry" />
        </mxCell>
        <mxCell id="pG6bn2Zg-pA-t7pHT_2o-49" value="" style="rounded=0;whiteSpace=wrap;html=1;fillColor=#dae8fc;strokeColor=#6c8ebf;" parent="1" vertex="1">
          <mxGeometry x="401.5" y="20" width="5" height="47.5" as="geometry" />
        </mxCell>
        <mxCell id="pG6bn2Zg-pA-t7pHT_2o-51" value="" style="rounded=0;whiteSpace=wrap;html=1;fillColor=#fff2cc;strokeColor=#d6b656;rotation=90;" parent="1" vertex="1">
          <mxGeometry x="429.98" y="44.28" width="5" height="52" as="geometry" />
        </mxCell>
        <mxCell id="pG6bn2Zg-pA-t7pHT_2o-46" value="" style="ellipse;whiteSpace=wrap;html=1;fillColor=#f8cecc;strokeColor=#b85450;" parent="1" vertex="1">
          <mxGeometry x="401.5" y="67.5" width="5" height="5" as="geometry" />
        </mxCell>
        <mxCell id="pG6bn2Zg-pA-t7pHT_2o-55" value="" style="endArrow=none;html=1;rounded=0;exitX=0.25;exitY=0;exitDx=0;exitDy=0;entryX=1;entryY=0.75;entryDx=0;entryDy=0;strokeWidth=2;strokeColor=#FFB570;" parent="1" source="pG6bn2Zg-pA-t7pHT_2o-40" target="pG6bn2Zg-pA-t7pHT_2o-40" edge="1">
          <mxGeometry width="50" height="50" relative="1" as="geometry">
            <mxPoint x="370" y="140" as="sourcePoint" />
            <mxPoint x="420" y="90" as="targetPoint" />
          </mxGeometry>
        </mxCell>
        <mxCell id="pG6bn2Zg-pA-t7pHT_2o-56" value="" style="endArrow=none;html=1;rounded=0;entryX=0.75;entryY=0;entryDx=0;entryDy=0;strokeWidth=2;strokeColor=#1010C9;" parent="1" target="pG6bn2Zg-pA-t7pHT_2o-54" edge="1">
          <mxGeometry width="50" height="50" relative="1" as="geometry">
            <mxPoint x="390" y="120" as="sourcePoint" />
            <mxPoint x="440" y="70" as="targetPoint" />
          </mxGeometry>
        </mxCell>
        <mxCell id="pG6bn2Zg-pA-t7pHT_2o-57" value="&lt;font style=&quot;font-size: 8px;&quot;&gt;(i, a)&lt;/font&gt;" style="text;html=1;align=center;verticalAlign=middle;whiteSpace=wrap;rounded=0;" parent="1" vertex="1">
          <mxGeometry x="252.5" y="25.5" width="25" height="15" as="geometry" />
        </mxCell>
        <mxCell id="pG6bn2Zg-pA-t7pHT_2o-58" value="&lt;font style=&quot;font-size: 8px;&quot;&gt;(i, i)&lt;/font&gt;" style="text;html=1;align=center;verticalAlign=middle;whiteSpace=wrap;rounded=0;" parent="1" vertex="1">
          <mxGeometry x="217.5" y="72.5" width="25" height="15" as="geometry" />
        </mxCell>
        <mxCell id="pG6bn2Zg-pA-t7pHT_2o-59" value="&lt;font style=&quot;font-size: 8px;&quot;&gt;(a, a)&lt;/font&gt;" style="text;html=1;align=center;verticalAlign=middle;whiteSpace=wrap;rounded=0;" parent="1" vertex="1">
          <mxGeometry x="285" y="52.5" width="25" height="15" as="geometry" />
        </mxCell>
        <mxCell id="pG6bn2Zg-pA-t7pHT_2o-60" value="&lt;font style=&quot;font-size: 8px;&quot;&gt;(a, i)&lt;/font&gt;" style="text;html=1;align=center;verticalAlign=middle;whiteSpace=wrap;rounded=0;" parent="1" vertex="1">
          <mxGeometry x="260" y="95" width="25" height="15" as="geometry" />
        </mxCell>
        <mxCell id="pG6bn2Zg-pA-t7pHT_2o-61" value="&lt;font style=&quot;font-size: 8px;&quot;&gt;(a, a)&lt;/font&gt;" style="text;html=1;align=center;verticalAlign=middle;whiteSpace=wrap;rounded=0;" parent="1" vertex="1">
          <mxGeometry x="410" y="83.5" width="25" height="15" as="geometry" />
        </mxCell>
        <mxCell id="pG6bn2Zg-pA-t7pHT_2o-62" value="&lt;font style=&quot;font-size: 8px;&quot;&gt;H&lt;/font&gt;&lt;font style=&quot;font-size: 6.66667px;&quot;&gt;4&lt;/font&gt;" style="text;html=1;align=center;verticalAlign=middle;whiteSpace=wrap;rounded=0;" parent="1" vertex="1">
          <mxGeometry x="429.98" y="-4.5" width="31" height="30" as="geometry" />
        </mxCell>
        <mxCell id="pG6bn2Zg-pA-t7pHT_2o-63" value="&lt;font style=&quot;font-size: 8px;&quot;&gt;H&lt;/font&gt;&lt;font style=&quot;font-size: 6.66667px;&quot;&gt;3&lt;/font&gt;" style="text;html=1;align=center;verticalAlign=middle;whiteSpace=wrap;rounded=0;" parent="1" vertex="1">
          <mxGeometry x="454" y="79" width="31" height="30" as="geometry" />
        </mxCell>
        <mxCell id="pG6bn2Zg-pA-t7pHT_2o-64" value="&lt;font style=&quot;font-size: 8px;&quot;&gt;(a, i)&lt;/font&gt;" style="text;html=1;align=center;verticalAlign=middle;whiteSpace=wrap;rounded=0;" parent="1" vertex="1">
          <mxGeometry x="376.5" y="52.5" width="25" height="15" as="geometry" />
        </mxCell>
        <mxCell id="pG6bn2Zg-pA-t7pHT_2o-65" value="&lt;font style=&quot;font-size: 8px;&quot;&gt;(i, i)&lt;/font&gt;" style="text;html=1;align=center;verticalAlign=middle;whiteSpace=wrap;rounded=0;" parent="1" vertex="1">
          <mxGeometry x="406.5" y="25.5" width="25" height="15" as="geometry" />
        </mxCell>
        <mxCell id="pG6bn2Zg-pA-t7pHT_2o-66" value="&lt;font style=&quot;font-size: 8px;&quot;&gt;(i, a)&lt;/font&gt;" style="text;html=1;align=center;verticalAlign=middle;whiteSpace=wrap;rounded=0;" parent="1" vertex="1">
          <mxGeometry x="435.98" y="50" width="25" height="15" as="geometry" />
        </mxCell>
        <mxCell id="pG6bn2Zg-pA-t7pHT_2o-67" value="&lt;font style=&quot;font-size: 8px;&quot;&gt;H&lt;/font&gt;&lt;font style=&quot;font-size: 6.66667px;&quot;&gt;2&lt;/font&gt;" style="text;html=1;align=center;verticalAlign=middle;whiteSpace=wrap;rounded=0;" parent="1" vertex="1">
          <mxGeometry x="303" y="236" width="31" height="30" as="geometry" />
        </mxCell>
        <mxCell id="pG6bn2Zg-pA-t7pHT_2o-68" value="&lt;font style=&quot;font-size: 8px;&quot;&gt;H&lt;/font&gt;&lt;font style=&quot;font-size: 6.66667px;&quot;&gt;1&lt;/font&gt;" style="text;html=1;align=center;verticalAlign=middle;whiteSpace=wrap;rounded=0;" parent="1" vertex="1">
          <mxGeometry x="276.5" y="141" width="27.5" height="21" as="geometry" />
        </mxCell>
        <mxCell id="pG6bn2Zg-pA-t7pHT_2o-73" value="&lt;font style=&quot;font-size: 8px;&quot;&gt;H&lt;/font&gt;&lt;font style=&quot;font-size: 6.66667px;&quot;&gt;3&lt;/font&gt;" style="text;html=1;align=center;verticalAlign=middle;whiteSpace=wrap;rounded=0;" parent="1" vertex="1">
          <mxGeometry x="420" y="249.5" width="31" height="30" as="geometry" />
        </mxCell>
        <mxCell id="pG6bn2Zg-pA-t7pHT_2o-78" value="" style="endArrow=none;html=1;rounded=0;exitX=0.181;exitY=-0.001;exitDx=0;exitDy=0;exitPerimeter=0;entryX=1.004;entryY=0.899;entryDx=0;entryDy=0;entryPerimeter=0;strokeWidth=2;strokeColor=#1010C9;" parent="1" edge="1">
          <mxGeometry width="50" height="50" relative="1" as="geometry">
            <mxPoint x="220" y="160" as="sourcePoint" />
            <mxPoint x="310" y="250" as="targetPoint" />
          </mxGeometry>
        </mxCell>
        <mxCell id="pG6bn2Zg-pA-t7pHT_2o-79" value="" style="endArrow=none;html=1;rounded=0;exitX=0.451;exitY=1.004;exitDx=0;exitDy=0;exitPerimeter=0;entryX=0.806;entryY=0.001;entryDx=0;entryDy=0;entryPerimeter=0;strokeWidth=2;strokeColor=#FFB570;" parent="1" edge="1">
          <mxGeometry width="50" height="50" relative="1" as="geometry">
            <mxPoint x="250.5" y="260" as="sourcePoint" />
            <mxPoint x="289.5" y="160" as="targetPoint" />
          </mxGeometry>
        </mxCell>
        <mxCell id="pG6bn2Zg-pA-t7pHT_2o-80" value="&lt;font style=&quot;font-size: 8px;&quot;&gt;H&lt;/font&gt;&lt;font style=&quot;font-size: 6.66667px;&quot;&gt;4&lt;/font&gt;" style="text;html=1;align=center;verticalAlign=middle;whiteSpace=wrap;rounded=0;" parent="1" vertex="1">
          <mxGeometry x="453.5" y="181.5" width="31" height="30" as="geometry" />
        </mxCell>
        <mxCell id="pG6bn2Zg-pA-t7pHT_2o-95" value="Layer 2" style="text;html=1;align=center;verticalAlign=middle;whiteSpace=wrap;rounded=0;" parent="1" vertex="1">
          <mxGeometry x="364.5" y="120" width="90" height="30" as="geometry" />
        </mxCell>
        <mxCell id="pG6bn2Zg-pA-t7pHT_2o-103" value="" style="rounded=0;whiteSpace=wrap;html=1;" parent="1" vertex="1">
          <mxGeometry x="501" y="19.5" width="110" height="100" as="geometry" />
        </mxCell>
        <mxCell id="pG6bn2Zg-pA-t7pHT_2o-104" value="" style="endArrow=none;dashed=1;html=1;rounded=0;exitX=0.5;exitY=1;exitDx=0;exitDy=0;entryX=0.5;entryY=0;entryDx=0;entryDy=0;" parent="1" source="pG6bn2Zg-pA-t7pHT_2o-111" target="pG6bn2Zg-pA-t7pHT_2o-103" edge="1">
          <mxGeometry width="50" height="50" relative="1" as="geometry">
            <mxPoint x="571" y="149.5" as="sourcePoint" />
            <mxPoint x="621" y="99.5" as="targetPoint" />
          </mxGeometry>
        </mxCell>
        <mxCell id="pG6bn2Zg-pA-t7pHT_2o-105" value="" style="endArrow=none;dashed=1;html=1;rounded=0;exitX=0.5;exitY=1;exitDx=0;exitDy=0;entryX=0.5;entryY=0;entryDx=0;entryDy=0;strokeWidth=0.5;" parent="1" source="pG6bn2Zg-pA-t7pHT_2o-103" target="pG6bn2Zg-pA-t7pHT_2o-113" edge="1">
          <mxGeometry width="50" height="50" relative="1" as="geometry">
            <mxPoint x="556" y="119.5" as="sourcePoint" />
            <mxPoint x="556" y="19.5" as="targetPoint" />
          </mxGeometry>
        </mxCell>
        <mxCell id="pG6bn2Zg-pA-t7pHT_2o-106" value="" style="endArrow=none;dashed=1;html=1;rounded=0;exitX=0;exitY=0.5;exitDx=0;exitDy=0;entryX=1;entryY=0.5;entryDx=0;entryDy=0;" parent="1" edge="1">
          <mxGeometry width="50" height="50" relative="1" as="geometry">
            <mxPoint x="552.5000000000022" y="69.5" as="sourcePoint" />
            <mxPoint x="610" y="69.5" as="targetPoint" />
          </mxGeometry>
        </mxCell>
        <mxCell id="pG6bn2Zg-pA-t7pHT_2o-107" value="" style="endArrow=none;dashed=1;html=1;rounded=0;exitX=0;exitY=0.5;exitDx=0;exitDy=0;entryX=1;entryY=0.5;entryDx=0;entryDy=0;strokeWidth=0.5;" parent="1" source="pG6bn2Zg-pA-t7pHT_2o-103" target="pG6bn2Zg-pA-t7pHT_2o-113" edge="1">
          <mxGeometry width="50" height="50" relative="1" as="geometry">
            <mxPoint x="501" y="69.5" as="sourcePoint" />
            <mxPoint x="611" y="69.5" as="targetPoint" />
          </mxGeometry>
        </mxCell>
        <mxCell id="pG6bn2Zg-pA-t7pHT_2o-108" value="" style="endArrow=none;dashed=1;html=1;rounded=0;exitX=0.5;exitY=1;exitDx=0;exitDy=0;entryX=0.5;entryY=0;entryDx=0;entryDy=0;" parent="1" source="pG6bn2Zg-pA-t7pHT_2o-113" target="pG6bn2Zg-pA-t7pHT_2o-111" edge="1">
          <mxGeometry width="50" height="50" relative="1" as="geometry">
            <mxPoint x="556" y="72.5" as="sourcePoint" />
            <mxPoint x="556" y="19.5" as="targetPoint" />
          </mxGeometry>
        </mxCell>
        <mxCell id="pG6bn2Zg-pA-t7pHT_2o-110" value="" style="rounded=0;whiteSpace=wrap;html=1;fillColor=#d5e8d4;strokeColor=#82b366;" parent="1" vertex="1">
          <mxGeometry x="558.5" y="19.5" width="52" height="48" as="geometry" />
        </mxCell>
        <mxCell id="pG6bn2Zg-pA-t7pHT_2o-111" value="" style="rounded=0;whiteSpace=wrap;html=1;fillColor=#dae8fc;strokeColor=#6c8ebf;" parent="1" vertex="1">
          <mxGeometry x="553.5" y="19.5" width="5" height="47.5" as="geometry" />
        </mxCell>
        <mxCell id="pG6bn2Zg-pA-t7pHT_2o-112" value="" style="rounded=0;whiteSpace=wrap;html=1;fillColor=#fff2cc;strokeColor=#d6b656;rotation=90;" parent="1" vertex="1">
          <mxGeometry x="581.98" y="43.78" width="5" height="52" as="geometry" />
        </mxCell>
        <mxCell id="pG6bn2Zg-pA-t7pHT_2o-113" value="" style="ellipse;whiteSpace=wrap;html=1;fillColor=#f8cecc;strokeColor=#b85450;" parent="1" vertex="1">
          <mxGeometry x="553.5" y="67" width="5" height="5" as="geometry" />
        </mxCell>
        <mxCell id="pG6bn2Zg-pA-t7pHT_2o-114" value="" style="endArrow=none;html=1;rounded=0;exitX=0.32;exitY=0.003;exitDx=0;exitDy=0;entryX=0.25;entryY=1;entryDx=0;entryDy=0;strokeWidth=2;strokeColor=#FFB570;exitPerimeter=0;" parent="1" source="pG6bn2Zg-pA-t7pHT_2o-110" edge="1">
          <mxGeometry width="50" height="50" relative="1" as="geometry">
            <mxPoint x="565" y="19.5" as="sourcePoint" />
            <mxPoint x="522" y="119.5" as="targetPoint" />
          </mxGeometry>
        </mxCell>
        <mxCell id="pG6bn2Zg-pA-t7pHT_2o-115" value="" style="endArrow=none;html=1;rounded=0;strokeWidth=2;strokeColor=#1010C9;exitX=0.25;exitY=0;exitDx=0;exitDy=0;" parent="1" source="pG6bn2Zg-pA-t7pHT_2o-103" edge="1">
          <mxGeometry width="50" height="50" relative="1" as="geometry">
            <mxPoint x="542" y="119.5" as="sourcePoint" />
            <mxPoint x="610" y="120" as="targetPoint" />
          </mxGeometry>
        </mxCell>
        <mxCell id="pG6bn2Zg-pA-t7pHT_2o-116" value="&lt;font style=&quot;font-size: 8px;&quot;&gt;(i, a)&lt;/font&gt;" style="text;html=1;align=center;verticalAlign=middle;whiteSpace=wrap;rounded=0;" parent="1" vertex="1">
          <mxGeometry x="560" y="85" width="25" height="15" as="geometry" />
        </mxCell>
        <mxCell id="pG6bn2Zg-pA-t7pHT_2o-117" value="&lt;font style=&quot;font-size: 8px;&quot;&gt;H&lt;/font&gt;&lt;font style=&quot;font-size: 6.66667px;&quot;&gt;5&lt;/font&gt;" style="text;html=1;align=center;verticalAlign=middle;whiteSpace=wrap;rounded=0;" parent="1" vertex="1">
          <mxGeometry x="560.5" y="-4.5" width="31" height="30" as="geometry" />
        </mxCell>
        <mxCell id="pG6bn2Zg-pA-t7pHT_2o-118" value="&lt;font style=&quot;font-size: 8px;&quot;&gt;H&lt;/font&gt;&lt;font style=&quot;font-size: 6.66667px;&quot;&gt;6&lt;/font&gt;" style="text;html=1;align=center;verticalAlign=middle;whiteSpace=wrap;rounded=0;" parent="1" vertex="1">
          <mxGeometry x="604" y="101" width="31" height="30" as="geometry" />
        </mxCell>
        <mxCell id="pG6bn2Zg-pA-t7pHT_2o-119" value="&lt;font style=&quot;font-size: 8px;&quot;&gt;(a, a)&lt;/font&gt;" style="text;html=1;align=center;verticalAlign=middle;whiteSpace=wrap;rounded=0;" parent="1" vertex="1">
          <mxGeometry x="516.5" y="52" width="25" height="15" as="geometry" />
        </mxCell>
        <mxCell id="pG6bn2Zg-pA-t7pHT_2o-120" value="&lt;font style=&quot;font-size: 8px;&quot;&gt;(a, i)&lt;/font&gt;" style="text;html=1;align=center;verticalAlign=middle;whiteSpace=wrap;rounded=0;" parent="1" vertex="1">
          <mxGeometry x="542.5" y="18.5" width="25" height="15" as="geometry" />
        </mxCell>
        <mxCell id="pG6bn2Zg-pA-t7pHT_2o-121" value="&lt;font style=&quot;font-size: 8px;&quot;&gt;(i, i)&lt;/font&gt;" style="text;html=1;align=center;verticalAlign=middle;whiteSpace=wrap;rounded=0;" parent="1" vertex="1">
          <mxGeometry x="586" y="43.78" width="25" height="15" as="geometry" />
        </mxCell>
        <mxCell id="pG6bn2Zg-pA-t7pHT_2o-139" value="Layer 3" style="text;html=1;align=center;verticalAlign=middle;whiteSpace=wrap;rounded=0;" parent="1" vertex="1">
          <mxGeometry x="516.5" y="119.5" width="90" height="30" as="geometry" />
        </mxCell>
        <mxCell id="pG6bn2Zg-pA-t7pHT_2o-153" value="" style="verticalLabelPosition=bottom;verticalAlign=top;html=1;shape=mxgraph.basic.polygon;polyCoords=[[0,0.2],[0,0],[0.36,0],[1,1],[1,1],[0,1],[0,0.75],[0,0.2]];polyline=0;" parent="1" vertex="1">
          <mxGeometry x="349" y="159.5" width="110" height="100" as="geometry" />
        </mxCell>
        <mxCell id="pG6bn2Zg-pA-t7pHT_2o-154" value="" style="verticalLabelPosition=bottom;verticalAlign=top;html=1;shape=mxgraph.basic.polygon;polyCoords=[[0.2,0],[1,0],[1,0.25],[1,0.75],[1,1],[1,1],[0.2,0],[0.2,0]];polyline=0;" parent="1" vertex="1">
          <mxGeometry x="359" y="159.5" width="100" height="100" as="geometry" />
        </mxCell>
        <mxCell id="pG6bn2Zg-pA-t7pHT_2o-155" value="" style="verticalLabelPosition=bottom;verticalAlign=top;html=1;shape=mxgraph.basic.polygon;polyCoords=[[0.25,0],[0.45,0],[0.55,0],[0.85,0],[0.65,0.5],[0.35,0.2],[0.15,0],[0.25,0]];polyline=0;" parent="1" vertex="1">
          <mxGeometry x="354" y="159.5" width="100" height="100" as="geometry" />
        </mxCell>
        <mxCell id="pG6bn2Zg-pA-t7pHT_2o-156" value="" style="verticalLabelPosition=bottom;verticalAlign=top;html=1;shape=mxgraph.basic.polygon;polyCoords=[[0.4,1],[0.4,1],[0.6,0.5],[1,0.9],[1,1],[0.4,1],[0.4,1],[0.4,1]];polyline=0;" parent="1" vertex="1">
          <mxGeometry x="359" y="159.5" width="100" height="100" as="geometry" />
        </mxCell>
        <mxCell id="pG6bn2Zg-pA-t7pHT_2o-70" value="" style="endArrow=none;html=1;rounded=0;exitX=0.558;exitY=1.001;exitDx=0;exitDy=0;exitPerimeter=0;strokeWidth=2;strokeColor=#1010C9;" parent="1" edge="1">
          <mxGeometry width="50" height="50" relative="1" as="geometry">
            <mxPoint x="415.29999999999995" y="259.4999999999999" as="sourcePoint" />
            <mxPoint x="430.5" y="219.39999999999998" as="targetPoint" />
          </mxGeometry>
        </mxCell>
        <mxCell id="pG6bn2Zg-pA-t7pHT_2o-89" value="&lt;font style=&quot;font-size: 6px;&quot;&gt;aaia&lt;/font&gt;" style="text;html=1;align=center;verticalAlign=middle;whiteSpace=wrap;rounded=0;fontColor=#7EA6E0;" parent="1" vertex="1">
          <mxGeometry x="435.5" y="216.5" width="31" height="15" as="geometry" />
        </mxCell>
        <mxCell id="pG6bn2Zg-pA-t7pHT_2o-72" value="" style="endArrow=none;html=1;rounded=0;exitX=0.706;exitY=0.607;exitDx=0;exitDy=0;exitPerimeter=0;entryX=0.999;entryY=0.395;entryDx=0;entryDy=0;entryPerimeter=0;strokeWidth=2;strokeColor=#1010C9;" parent="1" edge="1">
          <mxGeometry width="50" height="50" relative="1" as="geometry">
            <mxPoint x="430.5" y="220.10000000000002" as="sourcePoint" />
            <mxPoint x="459.79999999999995" y="198.89999999999998" as="targetPoint" />
          </mxGeometry>
        </mxCell>
        <mxCell id="pG6bn2Zg-pA-t7pHT_2o-166" value="" style="endArrow=none;html=1;rounded=0;entryX=0.849;entryY=0.748;entryDx=0;entryDy=0;entryPerimeter=0;exitX=0.752;exitY=0.998;exitDx=0;exitDy=0;exitPerimeter=0;strokeColor=#FFB570;strokeWidth=2;" parent="1" edge="1">
          <mxGeometry width="50" height="50" relative="1" as="geometry">
            <mxPoint x="435.5" y="259.5" as="sourcePoint" />
            <mxPoint x="445.5" y="234.5" as="targetPoint" />
          </mxGeometry>
        </mxCell>
        <mxCell id="pG6bn2Zg-pA-t7pHT_2o-76" value="" style="endArrow=none;html=1;rounded=0;exitX=0.549;exitY=0.385;exitDx=0;exitDy=0;exitPerimeter=0;entryX=0.859;entryY=0.759;entryDx=0;entryDy=0;entryPerimeter=0;strokeWidth=2;strokeColor=#FFB570;" parent="1" edge="1">
          <mxGeometry width="50" height="50" relative="1" as="geometry">
            <mxPoint x="423.98" y="198.3" as="sourcePoint" />
            <mxPoint x="446" y="235.7000000000001" as="targetPoint" />
          </mxGeometry>
        </mxCell>
        <mxCell id="pG6bn2Zg-pA-t7pHT_2o-75" value="" style="endArrow=none;html=1;rounded=0;entryX=0.152;entryY=0.001;entryDx=0;entryDy=0;exitX=0.552;exitY=0.39;exitDx=0;exitDy=0;exitPerimeter=0;entryPerimeter=0;strokeColor=#FFB570;strokeWidth=2;" parent="1" edge="1">
          <mxGeometry width="50" height="50" relative="1" as="geometry">
            <mxPoint x="424.00000000000006" y="198.39999999999975" as="sourcePoint" />
            <mxPoint x="384.00000000000006" y="159.4999999999999" as="targetPoint" />
          </mxGeometry>
        </mxCell>
        <mxCell id="pG6bn2Zg-pA-t7pHT_2o-168" value="&lt;font style=&quot;font-size: 6px;&quot;&gt;iiai&lt;/font&gt;" style="text;html=1;align=center;verticalAlign=middle;whiteSpace=wrap;rounded=0;fontColor=#FFD966;" parent="1" vertex="1">
          <mxGeometry x="359" y="202" width="31" height="15" as="geometry" />
        </mxCell>
        <mxCell id="pG6bn2Zg-pA-t7pHT_2o-169" value="&lt;font style=&quot;font-size: 6px;&quot;&gt;iaai&lt;/font&gt;" style="text;html=1;align=center;verticalAlign=middle;whiteSpace=wrap;rounded=0;fontColor=#FFD966;" parent="1" vertex="1">
          <mxGeometry x="373" y="162.5" width="31" height="15" as="geometry" />
        </mxCell>
        <mxCell id="pG6bn2Zg-pA-t7pHT_2o-170" value="&lt;font style=&quot;font-size: 6px;&quot;&gt;iaii&lt;/font&gt;" style="text;html=1;align=center;verticalAlign=middle;whiteSpace=wrap;rounded=0;fontColor=#EA6B66;" parent="1" vertex="1">
          <mxGeometry x="400.5" y="159.5" width="31" height="15" as="geometry" />
        </mxCell>
        <mxCell id="pG6bn2Zg-pA-t7pHT_2o-171" value="&lt;font style=&quot;font-size: 6px;&quot;&gt;aaai&lt;/font&gt;" style="text;html=1;align=center;verticalAlign=middle;whiteSpace=wrap;rounded=0;fontSize=6;fontColor=#FFD966;" parent="1" vertex="1">
          <mxGeometry x="407" y="201" width="37" height="15" as="geometry" />
        </mxCell>
        <mxCell id="pG6bn2Zg-pA-t7pHT_2o-172" value="&lt;font style=&quot;font-size: 6px;&quot;&gt;aiai&lt;/font&gt;" style="text;html=1;align=center;verticalAlign=middle;whiteSpace=wrap;rounded=0;fontSize=6;fontColor=#FFD966;" parent="1" vertex="1">
          <mxGeometry x="395.98" y="228" width="37" height="15" as="geometry" />
        </mxCell>
        <mxCell id="pG6bn2Zg-pA-t7pHT_2o-173" value="&lt;font style=&quot;font-size: 4px;&quot;&gt;aaaa&lt;/font&gt;" style="text;html=1;align=center;verticalAlign=middle;whiteSpace=wrap;rounded=0;fontColor=#97D077;fontSize=4;" parent="1" vertex="1">
          <mxGeometry x="421.5" y="213" width="31" height="15" as="geometry" />
        </mxCell>
        <mxCell id="pG6bn2Zg-pA-t7pHT_2o-174" value="&lt;font style=&quot;font-size: 6px;&quot;&gt;aiaa&lt;/font&gt;" style="text;html=1;align=center;verticalAlign=middle;whiteSpace=wrap;rounded=0;fontColor=#97D077;" parent="1" vertex="1">
          <mxGeometry x="416" y="236" width="31" height="15" as="geometry" />
        </mxCell>
        <mxCell id="pG6bn2Zg-pA-t7pHT_2o-175" value="&lt;font style=&quot;font-size: 6px;&quot;&gt;aaii&lt;/font&gt;" style="text;html=1;align=center;verticalAlign=middle;whiteSpace=wrap;rounded=0;fontColor=#EA6B66;" parent="1" vertex="1">
          <mxGeometry x="429.98" y="175" width="31" height="15" as="geometry" />
        </mxCell>
        <mxCell id="pG6bn2Zg-pA-t7pHT_2o-195" value="" style="endArrow=classic;html=1;rounded=0;entryX=0.25;entryY=0;entryDx=0;entryDy=0;strokeColor=#FFB570;endSize=1;" parent="1" target="pG6bn2Zg-pA-t7pHT_2o-59" edge="1">
          <mxGeometry width="50" height="50" relative="1" as="geometry">
            <mxPoint x="277.5" y="48.25" as="sourcePoint" />
            <mxPoint x="337.5" y="38.25" as="targetPoint" />
          </mxGeometry>
        </mxCell>
        <mxCell id="pG6bn2Zg-pA-t7pHT_2o-198" value="" style="endArrow=classic;html=1;rounded=0;entryX=0.25;entryY=0;entryDx=0;entryDy=0;strokeColor=#FFB570;endSize=1;" parent="1" edge="1">
          <mxGeometry width="50" height="50" relative="1" as="geometry">
            <mxPoint x="283.5" y="173.25" as="sourcePoint" />
            <mxPoint x="297" y="178" as="targetPoint" />
          </mxGeometry>
        </mxCell>
        <mxCell id="pG6bn2Zg-pA-t7pHT_2o-199" value="" style="endArrow=classic;html=1;rounded=0;strokeColor=#1010C9;endSize=1;jumpSize=1;entryX=0.818;entryY=0.5;entryDx=0;entryDy=0;entryPerimeter=0;" parent="1" edge="1">
          <mxGeometry width="50" height="50" relative="1" as="geometry">
            <mxPoint x="290" y="90" as="sourcePoint" />
            <mxPoint x="300" y="80" as="targetPoint" />
          </mxGeometry>
        </mxCell>
        <mxCell id="pG6bn2Zg-pA-t7pHT_2o-200" value="" style="endArrow=classic;html=1;rounded=0;strokeColor=#1010C9;endSize=1;jumpSize=1;entryX=0.818;entryY=0.5;entryDx=0;entryDy=0;entryPerimeter=0;" parent="1" edge="1">
          <mxGeometry width="50" height="50" relative="1" as="geometry">
            <mxPoint x="285" y="224.5" as="sourcePoint" />
            <mxPoint x="295" y="214.5" as="targetPoint" />
          </mxGeometry>
        </mxCell>
        <mxCell id="pG6bn2Zg-pA-t7pHT_2o-203" value="" style="endArrow=classic;html=1;rounded=0;strokeColor=#FFB570;endSize=1;" parent="1" edge="1">
          <mxGeometry width="50" height="50" relative="1" as="geometry">
            <mxPoint x="531" y="101" as="sourcePoint" />
            <mxPoint x="513" y="90" as="targetPoint" />
          </mxGeometry>
        </mxCell>
        <mxCell id="pG6bn2Zg-pA-t7pHT_2o-204" value="" style="endArrow=classic;html=1;rounded=0;strokeColor=#1010C9;endSize=1;jumpSize=1;" parent="1" edge="1">
          <mxGeometry width="50" height="50" relative="1" as="geometry">
            <mxPoint x="435" y="40.5" as="sourcePoint" />
            <mxPoint x="443.15" y="45.67" as="targetPoint" />
            <Array as="points">
              <mxPoint x="443.15" y="45.67" />
            </Array>
          </mxGeometry>
        </mxCell>
        <mxCell id="pG6bn2Zg-pA-t7pHT_2o-205" value="" style="endArrow=classic;html=1;rounded=0;strokeColor=#FFB570;endSize=1;" parent="1" edge="1">
          <mxGeometry width="50" height="50" relative="1" as="geometry">
            <mxPoint x="401.5" y="177.5" as="sourcePoint" />
            <mxPoint x="390" y="190" as="targetPoint" />
          </mxGeometry>
        </mxCell>
        <mxCell id="pG6bn2Zg-pA-t7pHT_2o-206" value="" style="endArrow=classic;html=1;rounded=0;strokeColor=#1010C9;endSize=1;jumpSize=1;entryX=0.661;entryY=0.988;entryDx=0;entryDy=0;entryPerimeter=0;" parent="1" target="pG6bn2Zg-pA-t7pHT_2o-156" edge="1">
          <mxGeometry width="50" height="50" relative="1" as="geometry">
            <mxPoint x="416.5" y="254.5" as="sourcePoint" />
            <mxPoint x="426.5" y="264.5" as="targetPoint" />
          </mxGeometry>
        </mxCell>
        <mxCell id="pG6bn2Zg-pA-t7pHT_2o-209" value="" style="verticalLabelPosition=bottom;verticalAlign=top;html=1;shape=mxgraph.basic.polygon;polyCoords=[[0,0.2],[0,0],[0.36,0],[1,1],[1,1],[0,1],[0,0.75],[0,0.2]];polyline=0;" parent="1" vertex="1">
          <mxGeometry x="501" y="160" width="110" height="100" as="geometry" />
        </mxCell>
        <mxCell id="pG6bn2Zg-pA-t7pHT_2o-210" value="" style="verticalLabelPosition=bottom;verticalAlign=top;html=1;shape=mxgraph.basic.polygon;polyCoords=[[0.2,0],[1,0],[1,0.25],[1,0.75],[1,1],[1,1],[0.2,0],[0.2,0]];polyline=0;" parent="1" vertex="1">
          <mxGeometry x="511" y="160" width="100" height="100" as="geometry" />
        </mxCell>
        <mxCell id="pG6bn2Zg-pA-t7pHT_2o-211" value="" style="verticalLabelPosition=bottom;verticalAlign=top;html=1;shape=mxgraph.basic.polygon;polyCoords=[[0.25,0],[0.45,0],[0.55,0],[0.85,0],[0.65,0.5],[0.35,0.2],[0.15,0],[0.25,0]];polyline=0;" parent="1" vertex="1">
          <mxGeometry x="506" y="160" width="100" height="100" as="geometry" />
        </mxCell>
        <mxCell id="pG6bn2Zg-pA-t7pHT_2o-212" value="" style="verticalLabelPosition=bottom;verticalAlign=top;html=1;shape=mxgraph.basic.polygon;polyCoords=[[0.4,1],[0.4,1],[0.6,0.5],[1,0.9],[1,1],[0.4,1],[0.4,1],[0.4,1]];polyline=0;" parent="1" vertex="1">
          <mxGeometry x="511" y="160" width="100" height="100" as="geometry" />
        </mxCell>
        <mxCell id="pG6bn2Zg-pA-t7pHT_2o-213" value="" style="endArrow=none;html=1;rounded=0;exitX=0.558;exitY=1.001;exitDx=0;exitDy=0;exitPerimeter=0;strokeWidth=1;strokeColor=#000000;" parent="1" edge="1">
          <mxGeometry width="50" height="50" relative="1" as="geometry">
            <mxPoint x="567.3" y="259.9999999999999" as="sourcePoint" />
            <mxPoint x="582.5" y="219.89999999999998" as="targetPoint" />
          </mxGeometry>
        </mxCell>
        <mxCell id="pG6bn2Zg-pA-t7pHT_2o-214" value="&lt;font style=&quot;font-size: 4px;&quot;&gt;aaiaia&lt;/font&gt;" style="text;html=1;align=center;verticalAlign=middle;whiteSpace=wrap;rounded=0;fontSize=4;fontColor=#7EA6E0;" parent="1" vertex="1">
          <mxGeometry x="593.5" y="214.5" width="10" as="geometry" />
        </mxCell>
        <mxCell id="pG6bn2Zg-pA-t7pHT_2o-215" value="" style="endArrow=none;html=1;rounded=0;exitX=0.706;exitY=0.607;exitDx=0;exitDy=0;exitPerimeter=0;entryX=0.999;entryY=0.395;entryDx=0;entryDy=0;entryPerimeter=0;strokeWidth=1;strokeColor=#000000;" parent="1" edge="1">
          <mxGeometry width="50" height="50" relative="1" as="geometry">
            <mxPoint x="582.5" y="220.60000000000002" as="sourcePoint" />
            <mxPoint x="611.8" y="199.39999999999998" as="targetPoint" />
          </mxGeometry>
        </mxCell>
        <mxCell id="pG6bn2Zg-pA-t7pHT_2o-216" value="" style="endArrow=none;html=1;rounded=0;entryX=0.849;entryY=0.748;entryDx=0;entryDy=0;entryPerimeter=0;exitX=0.752;exitY=0.998;exitDx=0;exitDy=0;exitPerimeter=0;strokeColor=#000000;strokeWidth=1;" parent="1" edge="1">
          <mxGeometry width="50" height="50" relative="1" as="geometry">
            <mxPoint x="587.5" y="260" as="sourcePoint" />
            <mxPoint x="597.5" y="235" as="targetPoint" />
          </mxGeometry>
        </mxCell>
        <mxCell id="pG6bn2Zg-pA-t7pHT_2o-217" value="" style="endArrow=none;html=1;rounded=0;exitX=0.549;exitY=0.385;exitDx=0;exitDy=0;exitPerimeter=0;entryX=0.859;entryY=0.759;entryDx=0;entryDy=0;entryPerimeter=0;strokeWidth=1;strokeColor=#000000;" parent="1" edge="1">
          <mxGeometry width="50" height="50" relative="1" as="geometry">
            <mxPoint x="575.98" y="198.8" as="sourcePoint" />
            <mxPoint x="598" y="236.2000000000001" as="targetPoint" />
          </mxGeometry>
        </mxCell>
        <mxCell id="pG6bn2Zg-pA-t7pHT_2o-218" value="" style="endArrow=none;html=1;rounded=0;entryX=0.322;entryY=0.002;entryDx=0;entryDy=0;exitX=0.552;exitY=0.39;exitDx=0;exitDy=0;exitPerimeter=0;entryPerimeter=0;strokeColor=#000000;strokeWidth=1;" parent="1" edge="1" target="pG6bn2Zg-pA-t7pHT_2o-211">
          <mxGeometry width="50" height="50" relative="1" as="geometry">
            <mxPoint x="576" y="198.89999999999975" as="sourcePoint" />
            <mxPoint x="536" y="159.9999999999999" as="targetPoint" />
          </mxGeometry>
        </mxCell>
        <mxCell id="pG6bn2Zg-pA-t7pHT_2o-219" value="&lt;font color=&quot;#ea6b66&quot; style=&quot;font-size: 6px;&quot;&gt;iiaiii&lt;/font&gt;" style="text;html=1;align=center;verticalAlign=middle;whiteSpace=wrap;rounded=0;" parent="1" vertex="1">
          <mxGeometry x="511.5" y="208.5" width="31" height="15" as="geometry" />
        </mxCell>
        <mxCell id="pG6bn2Zg-pA-t7pHT_2o-220" value="&lt;font style=&quot;font-size: 5px;&quot;&gt;iaaiia&lt;/font&gt;" style="text;html=1;align=center;verticalAlign=middle;whiteSpace=wrap;rounded=0;fontSize=5;fontColor=#7EA6E0;" parent="1" vertex="1">
          <mxGeometry x="539.5" y="176" width="31" height="15" as="geometry" />
        </mxCell>
        <mxCell id="pG6bn2Zg-pA-t7pHT_2o-221" value="&lt;font style=&quot;font-size: 5px;&quot;&gt;iaiiiaia&lt;/font&gt;" style="text;html=1;align=center;verticalAlign=middle;whiteSpace=wrap;rounded=0;fontColor=#7EA6E0;fontSize=5;" parent="1" vertex="1">
          <mxGeometry x="548.5" y="161" width="37.5" height="15" as="geometry" />
        </mxCell>
        <mxCell id="pG6bn2Zg-pA-t7pHT_2o-222" value="&lt;font style=&quot;font-size: 3px;&quot;&gt;aaaiia&lt;/font&gt;" style="text;html=1;align=center;verticalAlign=middle;whiteSpace=wrap;rounded=0;fontSize=3;fontColor=#7EA6E0;" parent="1" vertex="1">
          <mxGeometry x="559" y="202.5" width="37" height="15" as="geometry" />
        </mxCell>
        <mxCell id="pG6bn2Zg-pA-t7pHT_2o-223" value="&lt;font color=&quot;#ea6b66&quot; style=&quot;font-size: 5px;&quot;&gt;aiaiii&lt;/font&gt;" style="text;html=1;align=center;verticalAlign=middle;whiteSpace=wrap;rounded=0;fontSize=4;" parent="1" vertex="1">
          <mxGeometry x="546.98" y="231.5" width="37" height="15" as="geometry" />
        </mxCell>
        <mxCell id="pG6bn2Zg-pA-t7pHT_2o-225" value="&lt;font style=&quot;font-size: 4px;&quot; color=&quot;#ea6b66&quot;&gt;aiaaii&lt;/font&gt;" style="text;html=1;align=center;verticalAlign=middle;whiteSpace=wrap;rounded=0;fontSize=4;" parent="1" vertex="1">
          <mxGeometry x="574.5" y="231.75" width="15" height="11.5" as="geometry" />
        </mxCell>
        <mxCell id="pG6bn2Zg-pA-t7pHT_2o-239" value="" style="endArrow=classic;html=1;rounded=0;strokeColor=#FFB570;endSize=1;" parent="1" edge="1">
          <mxGeometry width="50" height="50" relative="1" as="geometry">
            <mxPoint x="396.5" y="38" as="sourcePoint" />
            <mxPoint x="387" y="50" as="targetPoint" />
          </mxGeometry>
        </mxCell>
        <mxCell id="pG6bn2Zg-pA-t7pHT_2o-242" value="&lt;font style=&quot;font-size: 6px;&quot;&gt;aaiiiaia&lt;/font&gt;" style="text;html=1;align=center;verticalAlign=middle;whiteSpace=wrap;rounded=0;fontColor=#7EA6E0;fontSize=6;" parent="1" vertex="1">
          <mxGeometry x="574.98" y="186.5" width="37.5" height="14.5" as="geometry" />
        </mxCell>
        <mxCell id="pG6bn2Zg-pA-t7pHT_2o-245" value="&lt;font style=&quot;font-size: 6px;&quot;&gt;aiia&lt;/font&gt;" style="text;html=1;align=center;verticalAlign=middle;whiteSpace=wrap;rounded=0;fontColor=#7EA6E0;" parent="1" vertex="1">
          <mxGeometry x="436.98" y="242.5" width="27.02" height="10.5" as="geometry" />
        </mxCell>
        <mxCell id="pG6bn2Zg-pA-t7pHT_2o-248" value="&lt;font style=&quot;font-size: 4px;&quot; color=&quot;#ffd966&quot;&gt;aiiaai&lt;/font&gt;" style="text;html=1;align=center;verticalAlign=middle;whiteSpace=wrap;rounded=0;fontSize=4;" parent="1" vertex="1">
          <mxGeometry x="585.98" y="247.75" width="29.76" height="8.5" as="geometry" />
        </mxCell>
        <mxCell id="pG6bn2Zg-pA-t7pHT_2o-255" value="" style="endArrow=none;html=1;rounded=0;exitX=0.704;exitY=1.005;exitDx=0;exitDy=0;exitPerimeter=0;entryX=0.82;entryY=0.725;entryDx=0;entryDy=0;entryPerimeter=0;fillColor=#ffe6cc;strokeColor=#FFB570;strokeWidth=2;" parent="1" source="pG6bn2Zg-pA-t7pHT_2o-212" target="pG6bn2Zg-pA-t7pHT_2o-212" edge="1">
          <mxGeometry width="50" height="50" relative="1" as="geometry">
            <mxPoint x="480" y="170" as="sourcePoint" />
            <mxPoint x="530" y="120" as="targetPoint" />
          </mxGeometry>
        </mxCell>
        <mxCell id="pG6bn2Zg-pA-t7pHT_2o-256" value="" style="endArrow=none;html=1;rounded=0;exitX=0.998;exitY=0.518;exitDx=0;exitDy=0;exitPerimeter=0;entryX=0.82;entryY=0.718;entryDx=0;entryDy=0;entryPerimeter=0;fillColor=#ffe6cc;strokeColor=#FFB570;strokeWidth=2;" parent="1" source="pG6bn2Zg-pA-t7pHT_2o-210" target="pG6bn2Zg-pA-t7pHT_2o-212" edge="1">
          <mxGeometry width="50" height="50" relative="1" as="geometry">
            <mxPoint x="591" y="271" as="sourcePoint" />
            <mxPoint x="603" y="243" as="targetPoint" />
          </mxGeometry>
        </mxCell>
        <mxCell id="pG6bn2Zg-pA-t7pHT_2o-257" value="" style="endArrow=classic;html=1;rounded=0;strokeColor=#FFB570;endSize=1;" parent="1" edge="1">
          <mxGeometry width="50" height="50" relative="1" as="geometry">
            <mxPoint x="606" y="218.5" as="sourcePoint" />
            <mxPoint x="616" y="228.5" as="targetPoint" />
          </mxGeometry>
        </mxCell>
        <mxCell id="pG6bn2Zg-pA-t7pHT_2o-259" value="&lt;font color=&quot;#ffd966&quot; style=&quot;font-size: 3px;&quot;&gt;aaaaai&lt;/font&gt;" style="text;html=1;align=center;verticalAlign=middle;whiteSpace=wrap;rounded=0;" parent="1" vertex="1">
          <mxGeometry x="580.74" y="226.5" width="29.76" height="8.5" as="geometry" />
        </mxCell>
        <mxCell id="pG6bn2Zg-pA-t7pHT_2o-261" value="&lt;font style=&quot;font-size: 4px;&quot;&gt;aiaaai&lt;/font&gt;" style="text;html=1;align=center;verticalAlign=middle;whiteSpace=wrap;rounded=0;fontColor=#FFD966;rotation=292;" parent="1" vertex="1">
          <mxGeometry x="573.5" y="240" width="27.5" height="10" as="geometry" />
        </mxCell>
        <mxCell id="pG6bn2Zg-pA-t7pHT_2o-266" value="" style="endArrow=classic;html=1;rounded=0;strokeColor=#1010C9;endSize=1;jumpSize=1;startSize=3;" parent="1" edge="1">
          <mxGeometry width="50" height="50" relative="1" as="geometry">
            <mxPoint x="510" y="195" as="sourcePoint" />
            <mxPoint x="520" y="176" as="targetPoint" />
            <Array as="points">
              <mxPoint x="520" y="176.25" />
            </Array>
          </mxGeometry>
        </mxCell>
        <mxCell id="pG6bn2Zg-pA-t7pHT_2o-267" value="" style="endArrow=none;html=1;rounded=0;exitX=0.003;exitY=0.311;exitDx=0;exitDy=0;exitPerimeter=0;entryX=0.55;entryY=0.635;entryDx=0;entryDy=0;entryPerimeter=0;strokeColor=#1010C9;strokeWidth=2;" parent="1" source="pG6bn2Zg-pA-t7pHT_2o-209" target="pG6bn2Zg-pA-t7pHT_2o-212" edge="1">
          <mxGeometry width="50" height="50" relative="1" as="geometry">
            <mxPoint x="540" y="220" as="sourcePoint" />
            <mxPoint x="590" y="170" as="targetPoint" />
          </mxGeometry>
        </mxCell>
        <mxCell id="pG6bn2Zg-pA-t7pHT_2o-268" value="" style="endArrow=none;html=1;rounded=0;exitX=0.544;exitY=0.635;exitDx=0;exitDy=0;exitPerimeter=0;entryX=0;entryY=0;entryDx=0;entryDy=0;strokeColor=#1010C9;strokeWidth=2;" parent="1" source="pG6bn2Zg-pA-t7pHT_2o-212" target="pG6bn2Zg-pA-t7pHT_2o-259" edge="1">
          <mxGeometry width="50" height="50" relative="1" as="geometry">
            <mxPoint x="490" y="250" as="sourcePoint" />
            <mxPoint x="540" y="200" as="targetPoint" />
          </mxGeometry>
        </mxCell>
        <mxCell id="pG6bn2Zg-pA-t7pHT_2o-269" value="" style="endArrow=none;html=1;rounded=0;exitX=0;exitY=0;exitDx=0;exitDy=0;entryX=0.25;entryY=0;entryDx=0;entryDy=0;strokeWidth=2;strokeColor=#1010C9;" parent="1" source="pG6bn2Zg-pA-t7pHT_2o-259" target="pG6bn2Zg-pA-t7pHT_2o-259" edge="1">
          <mxGeometry width="50" height="50" relative="1" as="geometry">
            <mxPoint x="520" y="230" as="sourcePoint" />
            <mxPoint x="570" y="180" as="targetPoint" />
          </mxGeometry>
        </mxCell>
        <mxCell id="pG6bn2Zg-pA-t7pHT_2o-271" value="" style="endArrow=none;html=1;rounded=0;exitX=0.25;exitY=0;exitDx=0;exitDy=0;entryX=0.38;entryY=-0.027;entryDx=0;entryDy=0;entryPerimeter=0;strokeWidth=2;strokeColor=#1010C9;" parent="1" source="pG6bn2Zg-pA-t7pHT_2o-259" target="pG6bn2Zg-pA-t7pHT_2o-259" edge="1">
          <mxGeometry width="50" height="50" relative="1" as="geometry">
            <mxPoint x="540" y="230" as="sourcePoint" />
            <mxPoint x="590" y="180" as="targetPoint" />
          </mxGeometry>
        </mxCell>
        <mxCell id="pG6bn2Zg-pA-t7pHT_2o-272" value="" style="endArrow=none;html=1;rounded=0;exitX=-0.08;exitY=0.086;exitDx=0;exitDy=0;exitPerimeter=0;entryX=1;entryY=0.5;entryDx=0;entryDy=0;strokeWidth=2;strokeColor=#1010C9;" parent="1" target="pG6bn2Zg-pA-t7pHT_2o-259" edge="1">
          <mxGeometry width="50" height="50" relative="1" as="geometry">
            <mxPoint x="591.38" y="225.57499999999982" as="sourcePoint" />
            <mxPoint x="540" y="130" as="targetPoint" />
          </mxGeometry>
        </mxCell>
        <mxCell id="pG6bn2Zg-pA-t7pHT_2o-273" value="" style="endArrow=classic;html=1;rounded=0;strokeColor=#1010C9;endSize=1;jumpSize=1;startSize=3;" parent="1" edge="1">
          <mxGeometry width="50" height="50" relative="1" as="geometry">
            <mxPoint x="594" y="101" as="sourcePoint" />
            <mxPoint x="580.24" y="112.88" as="targetPoint" />
            <Array as="points">
              <mxPoint x="580.24" y="112.88" />
            </Array>
          </mxGeometry>
        </mxCell>
        <mxCell id="pG6bn2Zg-pA-t7pHT_2o-275" value="&lt;font color=&quot;#ea6b66&quot; style=&quot;font-size: 3px;&quot;&gt;aaaaii&lt;/font&gt;" style="text;html=1;align=center;verticalAlign=middle;whiteSpace=wrap;rounded=0;fontSize=3;fontStyle=0" parent="1" vertex="1">
          <mxGeometry x="580.74" y="228" width="20" as="geometry" />
        </mxCell>
        <mxCell id="pG6bn2Zg-pA-t7pHT_2o-277" value="&lt;font style=&quot;font-size: 3px;&quot;&gt;aaaaia&lt;/font&gt;" style="text;html=1;align=center;verticalAlign=middle;whiteSpace=wrap;rounded=0;fontSize=3;fontStyle=0;fontColor=#7EA6E0;" parent="1" vertex="1">
          <mxGeometry x="576.74" y="222" width="20" as="geometry" />
        </mxCell>
        <mxCell id="pG6bn2Zg-pA-t7pHT_2o-278" value="&lt;font style=&quot;font-size: 6px;&quot;&gt;iiaiia&lt;/font&gt;" style="text;html=1;align=center;verticalAlign=middle;whiteSpace=wrap;rounded=0;fontSize=3;fontStyle=0;fontColor=#7EA6E0;" parent="1" vertex="1">
          <mxGeometry x="532.74" y="198" width="20" as="geometry" />
        </mxCell>
        <mxCell id="pG6bn2Zg-pA-t7pHT_2o-279" value="&lt;font style=&quot;font-size: 3px;&quot;&gt;aiaiia&lt;/font&gt;" style="text;html=1;align=center;verticalAlign=middle;whiteSpace=wrap;rounded=0;fontSize=3;fontColor=#7EA6E0;" parent="1" vertex="1">
          <mxGeometry x="560.5" y="215.5" width="25.5" height="7.5" as="geometry" />
        </mxCell>
        <mxCell id="pG6bn2Zg-pA-t7pHT_2o-281" value="&lt;font style=&quot;font-size: 3px;&quot;&gt;aaiaaa&lt;/font&gt;" style="text;html=1;align=center;verticalAlign=middle;whiteSpace=wrap;rounded=0;fontSize=3;fontColor=#97D077;" parent="1" vertex="1">
          <mxGeometry x="599.5" y="221" width="10" height="7.5" as="geometry" />
        </mxCell>
        <mxCell id="pG6bn2Zg-pA-t7pHT_2o-282" value="&lt;font style=&quot;font-size: 3px;&quot;&gt;aaiaai&lt;/font&gt;" style="text;html=1;align=center;verticalAlign=middle;whiteSpace=wrap;rounded=0;fontSize=3;fontColor=#FFD966;" parent="1" vertex="1">
          <mxGeometry x="591.5" y="230.5" width="26.5" height="12.5" as="geometry" />
        </mxCell>
      </root>
    </mxGraphModel>
  </diagram>
</mxfile>
